<?xml version="1.0" standalone="no"?>
<!DOCTYPE svg PUBLIC "-//W3C//DTD SVG 20010904//EN"
 "http://www.w3.org/TR/2001/REC-SVG-20010904/DTD/svg10.dtd">
<svg version="1.0" xmlns="http://www.w3.org/2000/svg"
 width="90.000000pt" height="90.000000pt" viewBox="0 0 90.000000 90.000000"
 preserveAspectRatio="xMidYMid meet">

<g transform="translate(0.000000,90.000000) scale(0.100000,-0.100000)"
fill="#000000" stroke="none">
<path d="M436 698 c-28 -43 -47 -99 -40 -120 5 -18 9 -14 26 26 11 25 25 46
30 46 5 0 17 -18 26 -40 19 -44 32 -52 32 -17 0 22 -45 127 -54 127 -3 0 -12
-10 -20 -22z"/>
<path d="M168 488 c-21 -6 -38 -14 -38 -18 0 -11 56 -57 92 -76 46 -24 47 -7
3 31 l-40 33 43 11 c23 7 42 16 42 21 0 12 -53 11 -102 -2z"/>
<path d="M650 486 c0 -8 12 -16 27 -18 40 -5 38 -21 -7 -48 -43 -27 -50 -40
-22 -40 26 0 122 71 122 91 0 7 -78 29 -104 29 -9 0 -16 -6 -16 -14z"/>
<path d="M380 274 c0 -27 46 -128 66 -144 8 -8 18 0 34 27 24 41 50 107 50
129 0 27 -25 14 -45 -23 -11 -20 -25 -38 -31 -40 -5 -2 -20 15 -33 37 -26 46
-41 51 -41 14z"/>
</g>
</svg>
